<svg xmlns="http://www.w3.org/2000/svg" width="1200" height="800" viewBox="0 0 1200 800" preserveAspectRatio="xMidYMid slice">
  <defs>
    <linearGradient id="g" x1="0" x2="1">
      <stop offset="0" stop-color="#E6FFFA"/>
      <stop offset="1" stop-color="#F0FFF4"/>
    </linearGradient>
  </defs>
  <rect width="1200" height="800" fill="url(#g)"/>

  <!-- Abstract leaves -->
  <g fill="#2F855A" opacity="0.12">
    <ellipse cx="200" cy="200" rx="220" ry="120" transform="rotate(-15 200 200)"/>
    <ellipse cx="420" cy="120" rx="160" ry="90" transform="rotate(10 420 120)"/>
    <ellipse cx="980" cy="220" rx="200" ry="110" transform="rotate(20 980 220)"/>
  </g>

  <g fill="#2F855A" opacity="0.08">
    <path d="M300 500c40-90 180-110 260-60s140 130 210 120 160-100 220-130" stroke="#2F855A" stroke-width="2" fill="none" opacity="0.5"/>
  </g>

  <!-- Icon: reusable bottle + leaf -->
  <g transform="translate(80,420)">
    <rect x="0" y="0" width="160" height="220" rx="20" fill="#ffffff" opacity="0.85" stroke="#2F855A" stroke-width="3"/>
    <rect x="46" y="-30" width="68" height="30" rx="10" fill="#2F855A" opacity="0.9"/>
    <path d="M60 80c10-22 40-30 60-20s30 34 20 58-40 38-62 30-36-36-18-68z" fill="#2F855A" opacity="0.95"/>
  </g>

  <!-- Small decorative dots -->
  <g fill="#2F855A" opacity="0.06">
    <circle cx="900" cy="580" r="60"/>
    <circle cx="1030" cy="420" r="30"/>
    <circle cx="110" cy="660" r="48"/>
  </g>

</svg>